<mxfile host="app.diagrams.net" modified="2022-04-22T06:29:26.425Z" agent="5.0 (Windows NT 10.0; Win64; x64) AppleWebKit/537.36 (KHTML, like Gecko) Chrome/100.0.4896.127 Safari/537.36" etag="pZPaSu-gKTrpbpR5upf9" version="17.4.5" type="github">
  <diagram id="GgL2rcDfE839rtcQ9Od4" name="Page-1">
    <mxGraphModel dx="1422" dy="754" grid="1" gridSize="10" guides="1" tooltips="1" connect="1" arrows="1" fold="1" page="1" pageScale="1" pageWidth="827" pageHeight="1169" math="0" shadow="0">
      <root>
        <mxCell id="0" />
        <mxCell id="1" parent="0" />
        <mxCell id="kXIjGG4SzzRXEFIliwjM-1" value="外接网关主流程" style="swimlane;childLayout=stackLayout;resizeParent=1;resizeParentMax=0;startSize=20;" vertex="1" parent="1">
          <mxGeometry x="150" y="190" width="830" height="560" as="geometry">
            <mxRectangle x="70" y="180" width="120" height="20" as="alternateBounds" />
          </mxGeometry>
        </mxCell>
        <mxCell id="kXIjGG4SzzRXEFIliwjM-2" value="鉴权" style="swimlane;startSize=20;" vertex="1" parent="kXIjGG4SzzRXEFIliwjM-1">
          <mxGeometry y="20" width="120" height="540" as="geometry" />
        </mxCell>
        <mxCell id="kXIjGG4SzzRXEFIliwjM-59" style="edgeStyle=orthogonalEdgeStyle;rounded=0;orthogonalLoop=1;jettySize=auto;html=1;exitX=0.5;exitY=1;exitDx=0;exitDy=0;" edge="1" parent="kXIjGG4SzzRXEFIliwjM-2" source="kXIjGG4SzzRXEFIliwjM-8" target="kXIjGG4SzzRXEFIliwjM-9">
          <mxGeometry relative="1" as="geometry" />
        </mxCell>
        <mxCell id="kXIjGG4SzzRXEFIliwjM-8" value="开始" style="ellipse;whiteSpace=wrap;html=1;" vertex="1" parent="kXIjGG4SzzRXEFIliwjM-2">
          <mxGeometry x="10" y="70" width="100" height="70" as="geometry" />
        </mxCell>
        <mxCell id="kXIjGG4SzzRXEFIliwjM-60" style="edgeStyle=orthogonalEdgeStyle;rounded=0;orthogonalLoop=1;jettySize=auto;html=1;exitX=0.5;exitY=1;exitDx=0;exitDy=0;entryX=0.5;entryY=0;entryDx=0;entryDy=0;" edge="1" parent="kXIjGG4SzzRXEFIliwjM-2" source="kXIjGG4SzzRXEFIliwjM-9" target="kXIjGG4SzzRXEFIliwjM-10">
          <mxGeometry relative="1" as="geometry" />
        </mxCell>
        <mxCell id="kXIjGG4SzzRXEFIliwjM-9" value="API + 参数 + 鉴权信息" style="rounded=0;whiteSpace=wrap;html=1;" vertex="1" parent="kXIjGG4SzzRXEFIliwjM-2">
          <mxGeometry x="8" y="190" width="104" height="60" as="geometry" />
        </mxCell>
        <mxCell id="kXIjGG4SzzRXEFIliwjM-10" value="鉴权" style="rhombus;whiteSpace=wrap;html=1;" vertex="1" parent="kXIjGG4SzzRXEFIliwjM-2">
          <mxGeometry x="20" y="300" width="80" height="60" as="geometry" />
        </mxCell>
        <mxCell id="kXIjGG4SzzRXEFIliwjM-3" value="前置脚本执行" style="swimlane;startSize=20;" vertex="1" parent="kXIjGG4SzzRXEFIliwjM-1">
          <mxGeometry x="120" y="20" width="140" height="540" as="geometry" />
        </mxCell>
        <mxCell id="kXIjGG4SzzRXEFIliwjM-62" style="edgeStyle=orthogonalEdgeStyle;rounded=0;orthogonalLoop=1;jettySize=auto;html=1;exitX=0.5;exitY=0;exitDx=0;exitDy=0;" edge="1" parent="kXIjGG4SzzRXEFIliwjM-3" source="kXIjGG4SzzRXEFIliwjM-23" target="kXIjGG4SzzRXEFIliwjM-24">
          <mxGeometry relative="1" as="geometry" />
        </mxCell>
        <mxCell id="kXIjGG4SzzRXEFIliwjM-23" value="准备环境变量" style="rounded=0;whiteSpace=wrap;html=1;" vertex="1" parent="kXIjGG4SzzRXEFIliwjM-3">
          <mxGeometry x="15" y="300" width="104" height="60" as="geometry" />
        </mxCell>
        <mxCell id="kXIjGG4SzzRXEFIliwjM-24" value="执行前置脚本" style="rounded=0;whiteSpace=wrap;html=1;" vertex="1" parent="kXIjGG4SzzRXEFIliwjM-3">
          <mxGeometry x="15" y="130" width="104" height="60" as="geometry" />
        </mxCell>
        <mxCell id="kXIjGG4SzzRXEFIliwjM-5" value="执行" style="swimlane;startSize=20;" vertex="1" parent="kXIjGG4SzzRXEFIliwjM-1">
          <mxGeometry x="260" y="20" width="450" height="540" as="geometry" />
        </mxCell>
        <mxCell id="kXIjGG4SzzRXEFIliwjM-28" value="" style="edgeStyle=orthogonalEdgeStyle;rounded=0;orthogonalLoop=1;jettySize=auto;html=1;" edge="1" parent="kXIjGG4SzzRXEFIliwjM-5" source="kXIjGG4SzzRXEFIliwjM-26" target="kXIjGG4SzzRXEFIliwjM-27">
          <mxGeometry relative="1" as="geometry" />
        </mxCell>
        <mxCell id="kXIjGG4SzzRXEFIliwjM-26" value="执行器类型" style="rhombus;whiteSpace=wrap;html=1;" vertex="1" parent="kXIjGG4SzzRXEFIliwjM-5">
          <mxGeometry x="174" y="20" width="93" height="55" as="geometry" />
        </mxCell>
        <mxCell id="kXIjGG4SzzRXEFIliwjM-82" style="edgeStyle=orthogonalEdgeStyle;rounded=0;orthogonalLoop=1;jettySize=auto;html=1;exitX=0.5;exitY=1;exitDx=0;exitDy=0;entryX=0.5;entryY=0;entryDx=0;entryDy=0;" edge="1" parent="kXIjGG4SzzRXEFIliwjM-5" source="kXIjGG4SzzRXEFIliwjM-27" target="kXIjGG4SzzRXEFIliwjM-54">
          <mxGeometry relative="1" as="geometry" />
        </mxCell>
        <mxCell id="kXIjGG4SzzRXEFIliwjM-83" style="edgeStyle=orthogonalEdgeStyle;rounded=0;orthogonalLoop=1;jettySize=auto;html=1;exitX=0.5;exitY=1;exitDx=0;exitDy=0;" edge="1" parent="kXIjGG4SzzRXEFIliwjM-5" source="kXIjGG4SzzRXEFIliwjM-27" target="kXIjGG4SzzRXEFIliwjM-33">
          <mxGeometry relative="1" as="geometry" />
        </mxCell>
        <mxCell id="kXIjGG4SzzRXEFIliwjM-84" style="edgeStyle=orthogonalEdgeStyle;rounded=0;orthogonalLoop=1;jettySize=auto;html=1;exitX=0.5;exitY=1;exitDx=0;exitDy=0;" edge="1" parent="kXIjGG4SzzRXEFIliwjM-5" source="kXIjGG4SzzRXEFIliwjM-27" target="kXIjGG4SzzRXEFIliwjM-31">
          <mxGeometry relative="1" as="geometry" />
        </mxCell>
        <mxCell id="kXIjGG4SzzRXEFIliwjM-27" value="HTTP" style="whiteSpace=wrap;html=1;" vertex="1" parent="kXIjGG4SzzRXEFIliwjM-5">
          <mxGeometry x="163.5" y="120" width="114" height="55" as="geometry" />
        </mxCell>
        <mxCell id="kXIjGG4SzzRXEFIliwjM-91" style="edgeStyle=orthogonalEdgeStyle;rounded=0;orthogonalLoop=1;jettySize=auto;html=1;exitX=0.5;exitY=1;exitDx=0;exitDy=0;entryX=0.5;entryY=0;entryDx=0;entryDy=0;" edge="1" parent="kXIjGG4SzzRXEFIliwjM-5" source="kXIjGG4SzzRXEFIliwjM-31" target="kXIjGG4SzzRXEFIliwjM-55">
          <mxGeometry relative="1" as="geometry" />
        </mxCell>
        <mxCell id="kXIjGG4SzzRXEFIliwjM-31" value="构造URL" style="whiteSpace=wrap;html=1;" vertex="1" parent="kXIjGG4SzzRXEFIliwjM-5">
          <mxGeometry x="300" y="220" width="100" height="50" as="geometry" />
        </mxCell>
        <mxCell id="kXIjGG4SzzRXEFIliwjM-85" style="edgeStyle=orthogonalEdgeStyle;rounded=0;orthogonalLoop=1;jettySize=auto;html=1;exitX=0.5;exitY=1;exitDx=0;exitDy=0;" edge="1" parent="kXIjGG4SzzRXEFIliwjM-5" source="kXIjGG4SzzRXEFIliwjM-33" target="kXIjGG4SzzRXEFIliwjM-55">
          <mxGeometry relative="1" as="geometry" />
        </mxCell>
        <mxCell id="kXIjGG4SzzRXEFIliwjM-33" value="构造Header" style="whiteSpace=wrap;html=1;" vertex="1" parent="kXIjGG4SzzRXEFIliwjM-5">
          <mxGeometry x="163.5" y="220" width="100" height="50" as="geometry" />
        </mxCell>
        <mxCell id="kXIjGG4SzzRXEFIliwjM-89" style="edgeStyle=orthogonalEdgeStyle;rounded=0;orthogonalLoop=1;jettySize=auto;html=1;exitX=0.5;exitY=1;exitDx=0;exitDy=0;entryX=0.5;entryY=0;entryDx=0;entryDy=0;" edge="1" parent="kXIjGG4SzzRXEFIliwjM-5" source="kXIjGG4SzzRXEFIliwjM-54" target="kXIjGG4SzzRXEFIliwjM-55">
          <mxGeometry relative="1" as="geometry" />
        </mxCell>
        <mxCell id="kXIjGG4SzzRXEFIliwjM-54" value="构造Body" style="whiteSpace=wrap;html=1;" vertex="1" parent="kXIjGG4SzzRXEFIliwjM-5">
          <mxGeometry x="20" y="220" width="100" height="50" as="geometry" />
        </mxCell>
        <mxCell id="kXIjGG4SzzRXEFIliwjM-86" style="edgeStyle=orthogonalEdgeStyle;rounded=0;orthogonalLoop=1;jettySize=auto;html=1;exitX=0.5;exitY=1;exitDx=0;exitDy=0;entryX=0.5;entryY=0;entryDx=0;entryDy=0;" edge="1" parent="kXIjGG4SzzRXEFIliwjM-5" source="kXIjGG4SzzRXEFIliwjM-55" target="kXIjGG4SzzRXEFIliwjM-56">
          <mxGeometry relative="1" as="geometry" />
        </mxCell>
        <mxCell id="kXIjGG4SzzRXEFIliwjM-87" style="edgeStyle=orthogonalEdgeStyle;rounded=0;orthogonalLoop=1;jettySize=auto;html=1;exitX=0.5;exitY=1;exitDx=0;exitDy=0;" edge="1" parent="kXIjGG4SzzRXEFIliwjM-5" source="kXIjGG4SzzRXEFIliwjM-55" target="kXIjGG4SzzRXEFIliwjM-57">
          <mxGeometry relative="1" as="geometry" />
        </mxCell>
        <mxCell id="kXIjGG4SzzRXEFIliwjM-88" style="edgeStyle=orthogonalEdgeStyle;rounded=0;orthogonalLoop=1;jettySize=auto;html=1;exitX=0.5;exitY=1;exitDx=0;exitDy=0;" edge="1" parent="kXIjGG4SzzRXEFIliwjM-5" source="kXIjGG4SzzRXEFIliwjM-55" target="kXIjGG4SzzRXEFIliwjM-58">
          <mxGeometry relative="1" as="geometry" />
        </mxCell>
        <mxCell id="kXIjGG4SzzRXEFIliwjM-55" value="执行请求" style="whiteSpace=wrap;html=1;" vertex="1" parent="kXIjGG4SzzRXEFIliwjM-5">
          <mxGeometry x="163.5" y="318" width="100" height="50" as="geometry" />
        </mxCell>
        <mxCell id="kXIjGG4SzzRXEFIliwjM-56" value="响应Body" style="whiteSpace=wrap;html=1;" vertex="1" parent="kXIjGG4SzzRXEFIliwjM-5">
          <mxGeometry x="30" y="408" width="100" height="50" as="geometry" />
        </mxCell>
        <mxCell id="kXIjGG4SzzRXEFIliwjM-57" value="响应Header" style="whiteSpace=wrap;html=1;" vertex="1" parent="kXIjGG4SzzRXEFIliwjM-5">
          <mxGeometry x="163.5" y="408" width="100" height="50" as="geometry" />
        </mxCell>
        <mxCell id="kXIjGG4SzzRXEFIliwjM-58" value="响应Code" style="whiteSpace=wrap;html=1;" vertex="1" parent="kXIjGG4SzzRXEFIliwjM-5">
          <mxGeometry x="300" y="408" width="100" height="50" as="geometry" />
        </mxCell>
        <mxCell id="kXIjGG4SzzRXEFIliwjM-7" value="结束" style="swimlane;startSize=20;" vertex="1" parent="kXIjGG4SzzRXEFIliwjM-1">
          <mxGeometry x="710" y="20" width="120" height="540" as="geometry" />
        </mxCell>
        <mxCell id="kXIjGG4SzzRXEFIliwjM-11" value="结束" style="ellipse;whiteSpace=wrap;html=1;" vertex="1" parent="kXIjGG4SzzRXEFIliwjM-7">
          <mxGeometry x="10" y="239.5" width="100" height="70" as="geometry" />
        </mxCell>
        <mxCell id="kXIjGG4SzzRXEFIliwjM-61" style="edgeStyle=orthogonalEdgeStyle;rounded=0;orthogonalLoop=1;jettySize=auto;html=1;exitX=1;exitY=0.5;exitDx=0;exitDy=0;entryX=0;entryY=0.5;entryDx=0;entryDy=0;" edge="1" parent="kXIjGG4SzzRXEFIliwjM-1" source="kXIjGG4SzzRXEFIliwjM-10" target="kXIjGG4SzzRXEFIliwjM-23">
          <mxGeometry relative="1" as="geometry" />
        </mxCell>
        <mxCell id="kXIjGG4SzzRXEFIliwjM-81" style="edgeStyle=orthogonalEdgeStyle;rounded=0;orthogonalLoop=1;jettySize=auto;html=1;exitX=0.5;exitY=0;exitDx=0;exitDy=0;entryX=0;entryY=0.5;entryDx=0;entryDy=0;" edge="1" parent="kXIjGG4SzzRXEFIliwjM-1" source="kXIjGG4SzzRXEFIliwjM-24" target="kXIjGG4SzzRXEFIliwjM-26">
          <mxGeometry relative="1" as="geometry" />
        </mxCell>
        <mxCell id="kXIjGG4SzzRXEFIliwjM-92" style="edgeStyle=orthogonalEdgeStyle;rounded=0;orthogonalLoop=1;jettySize=auto;html=1;exitX=0.5;exitY=1;exitDx=0;exitDy=0;entryX=0.5;entryY=1;entryDx=0;entryDy=0;" edge="1" parent="kXIjGG4SzzRXEFIliwjM-1" source="kXIjGG4SzzRXEFIliwjM-56" target="kXIjGG4SzzRXEFIliwjM-11">
          <mxGeometry relative="1" as="geometry" />
        </mxCell>
        <mxCell id="kXIjGG4SzzRXEFIliwjM-100" style="edgeStyle=orthogonalEdgeStyle;rounded=0;orthogonalLoop=1;jettySize=auto;html=1;exitX=0.5;exitY=1;exitDx=0;exitDy=0;" edge="1" parent="1" source="kXIjGG4SzzRXEFIliwjM-57">
          <mxGeometry relative="1" as="geometry">
            <mxPoint x="624" y="690" as="targetPoint" />
          </mxGeometry>
        </mxCell>
        <mxCell id="kXIjGG4SzzRXEFIliwjM-101" style="edgeStyle=orthogonalEdgeStyle;rounded=0;orthogonalLoop=1;jettySize=auto;html=1;exitX=0.5;exitY=1;exitDx=0;exitDy=0;" edge="1" parent="1" source="kXIjGG4SzzRXEFIliwjM-58">
          <mxGeometry relative="1" as="geometry">
            <mxPoint x="760" y="690" as="targetPoint" />
          </mxGeometry>
        </mxCell>
      </root>
    </mxGraphModel>
  </diagram>
</mxfile>
